<svg xmlns="http://www.w3.org/2000/svg"><symbol id="symbol--create" viewBox="0 0 24 24"><path d="M0 0h24v24H0z" fill="none"/><path d="M13 7h-2v4H7v2h4v4h2v-4h4v-2h-4V7zm-1-5C6.48 2 2 6.48 2 12s4.48 10 10 10 10-4.48 10-10S17.52 2 12 2zm0 18c-4.41 0-8-3.59-8-8s3.59-8 8-8 8 3.59 8 8-3.59 8-8 8z"/></symbol><symbol id="symbol--expand" viewBox="0 0 24 24"><path d="M16.59 8.59L12 13.17 7.41 8.59 6 10l6 6 6-6z"/><path d="M0 0h24v24H0z" fill="none"/></symbol><symbol id="symbol--legocms" viewBox="0 0 100 22.626"><path d="M79.71 204.5c.025.286.089.47.237.662.217.281.578.444.963.444a1.15 1.15 0 001.166-1.17 1.01 1.01 0 00-.326-.76c-.143-.134-.262-.198-.618-.332-.345-.128-.355-.133-.405-.163-.133-.084-.202-.197-.202-.33 0-.218.153-.371.375-.371.227 0 .366.138.386.385h.7c-.014-.276-.078-.464-.226-.647a1.088 1.088 0 00-.855-.39c-.587 0-1.062.46-1.062 1.037 0 .46.272.81.76.993.49.183.52.198.633.282a.463.463 0 01.168.37c0 .262-.202.444-.494.444-.301 0-.464-.148-.494-.454zm-4.18 1.042h.676v-2.736l.954 2.736h.553l.953-2.736v2.736h.677v-3.65h-.929l-.973 2.766-.983-2.766h-.928zm-1.227-1.017c-.296.31-.553.43-.903.43a1.242 1.242 0 01-1.225-1.245c0-.297.113-.613.301-.83.222-.262.538-.4.909-.4.425 0 .711.138.958.46h.756c-.144-.317-.272-.49-.519-.692a1.926 1.926 0 00-1.21-.42 1.882 1.882 0 00-1.877 1.877c0 1.052.855 1.901 1.922 1.901.745 0 1.397-.415 1.684-1.081zm-4.527-1.783c-.795 0-1.447.647-1.447 1.432 0 .79.652 1.432 1.452 1.432.795 0 1.457-.642 1.457-1.412 0-.815-.637-1.452-1.462-1.452zm.005.602c.44 0 .795.376.795.83 0 .46-.355.83-.79.83-.444 0-.795-.37-.795-.84 0-.45.36-.82.79-.82zm-2.47-.538v.346c-.202-.277-.499-.41-.894-.41-.775 0-1.348.602-1.348 1.412 0 .845.563 1.452 1.343 1.452.385 0 .642-.123.9-.424-.026.587-.277.874-.766.874-.307 0-.494-.08-.687-.292h-.746c.223.549.736.87 1.408.87.494 0 .884-.173 1.14-.5.193-.251.277-.587.277-1.11v-2.218zm-.82.538c.47 0 .79.341.79.84 0 .494-.31.82-.78.82s-.77-.321-.77-.82c0-.504.3-.84.76-.84zm-1.756 1.121c.02-.093.025-.153.025-.251 0-.85-.598-1.472-1.413-1.472-.805 0-1.442.637-1.442 1.442 0 .8.647 1.422 1.482 1.422.449 0 .8-.163 1.086-.494.104-.128.173-.242.217-.38h-.716c-.168.198-.33.272-.602.272-.39 0-.677-.208-.756-.539zm-2.139-.577c.104-.351.37-.544.76-.544.406 0 .673.193.757.544zm-1.76 1.654h.658v-3.65h-.657z" style="font-feature-settings:normal;font-variant-caps:normal;font-variant-ligatures:normal;font-variant-numeric:normal" transform="translate(-286.44 -950.28) scale(4.7084)"/></symbol></svg>